The Story of a Negro G.I. and a Girl Campfollower!
 
http://www.imdb.com/title/tt0040773/

General 
Complete name : Senza.Pieta.AKA.Without.Pity.1948.DVDRip.x264-HANDJOB.mkv 
Format : Matroska 
Format version : Version 2 
File size : 1.27 GiB 
Duration : 1h 25mn 
Overall bit rate : 2 112 Kbps 
Writing application : HandBrake 0.9.8 
Writing library : libmkv 0.6.5 
Video 
ID : 1 
Format : AVC 
Format/Info : Advanced Video Codec 
Format profile : High@L3.2 
Format settings, CABAC : Yes 
Format settings, ReFrames : 12 frames 
Codec ID : V_MPEG4/ISO/AVC 
Duration : 1h 25mn 
Bit rate : 1 878 Kbps 
Width : 714 pixels 
Height : 574 pixels 
Display aspect ratio : 4:3 
Original display aspect ratio : 4:3 
Frame rate : 25.000 fps 
Color space : YUV 
Chroma subsampling : 4:2:0 
Bit depth : 8 bits 
Scan type : Progressive 
Bits/(Pixel*Frame) : 0.183 
Stream size : 1.13 GiB (89%) 
Writing library : x264 core 120 
Encoding settings : cabac=1 / ref=12 / deblock=1:-3:-3 / analyse=0x3:0x133 / me=umh / subme=11 / psy=1 / psy_rd=1.00:0.00 / mixed_ref=1 / me_range=32 / chroma_me=1 / trellis=2 / 8x8dct=1 / cqm=0 / deadzone=21,11 / fast_pskip=0 / chroma_qp_offset=-2 / threads=4 / sliced_threads=0 / nr=0 / decimate=1 / interlaced=0 / bluray_compat=0 / constrained_intra=0 / bframes=9 / b_pyramid=2 / b_adapt=2 / b_bias=0 / direct=3 / weightb=1 / open_gop=0 / weightp=2 / keyint=250 / keyint_min=25 / scenecut=40 / intra_refresh=0 / rc_lookahead=60 / rc=crf / mbtree=1 / crf=18.0 / qcomp=0.60 / qpmin=3 / qpmax=69 / qpstep=4 / ip_ratio=1.40 / aq=2:1.20 
Language : English 
Default : Yes 
Forced : No 
Color primaries : BT.601-6 525, BT.1358 525, BT.1700 NTSC, SMPTE 170M 
Transfer characteristics : BT.709-5, BT.1361 
Matrix coefficients : BT.601-6 525, BT.1358 525, BT.1700 NTSC, SMPTE 170M 
Audio 
ID : 2 
Format : AC-3 
Format/Info : Audio Coding 3 
Mode extension : CM (complete main) 
Codec ID : A_AC3 
Duration : 1h 25mn 
Bit rate mode : Constant 
Bit rate : 192 Kbps 
Channel(s) : 2 channels 
Channel positions : Front: L R 
Sampling rate : 48.0 KHz 
Bit depth : 16 bits 
Compression mode : Lossy 
Stream size : 118 MiB (9%) 
Language : Italian 
Default : Yes 
Forced : No 
Text #1 
ID : 3 
Format : VobSub 
Codec ID : S_VOBSUB 
Codec ID/Info : The same subtitle format used on DVDs 
Language : Italian 
Default : No 
Forced : No 
Text #2 
ID : 4 
Format : VobSub 
Codec ID : S_VOBSUB 
Codec ID/Info : The same subtitle format used on DVDs 
Language : English 
Default : No 
Forced : No 
Menu 
00:00:00.000 : Chapter 1 
00:06:15.920 : Chapter 2 
00:09:14.200 : Chapter 3 
00:16:28.040 : Chapter 4 
00:21:04.920 : Chapter 5 
00:24:57.520 : Chapter 6 
00:29:00.560 : Chapter 7 
00:35:14.560 : Chapter 8 
00:39:06.680 : Chapter 9 
00:42:23.400 : Chapter 10 
00:45:25.560 : Chapter 11 
00:49:57.040 : Chapter 12 
00:55:34.480 : Chapter 13 
00:58:43.680 : Chapter 14 
01:01:47.400 : Chapter 15 
01:09:06.600 : Chapter 16 
01:12:58.120 : Chapter 17 
01:19:23.000 : Chapter 18

SUBS: English and italian

My rip.